<svg version="1" xmlns="http://www.w3.org/2000/svg" width="682.667" height="682.667" viewBox="0 0 512.000000 512.000000"><path d="M240 3.3c-.3.3-2.3.7-4.5 1-2.2.4-10.7 1.8-19 3.2-19.1 3.3-19.5 3.4-22.5 4-1.4.3-4.1.8-6 1.1-8.1 1.3-12.4 2.6-19.8 6-4.2 2-14.7 6.7-23.2 10.6-8.5 3.9-18.8 8.6-22.8 10.4-4.1 1.9-7.7 3.4-8.2 3.4-.5 0-10.8 9.8-23 21.7-12.1 12-23.3 22.3-24.8 23-2.5 1-8.7 9.9-26.6 38-3.5 5.6-5.1 7.3-6.9 7.3-2 0-3 1.8-8.1 13.5-3.2 7.5-5.7 13.7-5.5 13.9.5.5 30.8 20.5 86.1 56.9 23.3 15.3 55.3 36.5 71.3 47l28.9 19.2L216 312c36.6 98.3 42.5 114 43 114 .6 0 5.7-10.1 101.1-201.4l73.3-146.9-9.5-8.9c-25.2-23.8-27.5-25.7-29.6-25.2-1.3.4-5.6-1.4-12.4-5.1-5.7-3.1-14.7-7.7-19.9-10.2-5.2-2.5-13-6.3-17.2-8.4-4.4-2.1-8.7-3.6-9.9-3.4-1.2.2-8.7-2-16.8-5-14.2-5.2-15-5.4-27.6-6-7.2-.4-15.9-.8-19.5-1-21.5-1.3-30.6-1.6-31-1.2z"/><path d="M437.7 116.3c-5.9 11.6-16.3 32-23.1 45.2-6.7 13.2-19.3 37.9-28 55-16.1 31.4-28.1 54.8-47.6 93-5.9 11.5-17.2 33.6-25 49-7.8 15.4-18.2 35.6-23 45-4.8 9.3-15.2 29.6-23 45-7.8 15.4-14.4 28.1-14.5 28.3-.2.2-1.5-3-3-7s-3.3-8.7-4.1-10.3c-.7-1.7-3.5-8.9-6.3-16-2.7-7.2-16.4-42.3-30.4-78l-25.5-65-6.3-4.6c-3.5-2.5-22.7-15.5-42.7-29-70.4-47.5-86.9-58.6-104.6-70.7-9.9-6.7-18.1-12.1-18.2-11.9-.1.1-.4 2-.7 4.2-.3 2.2-1.7 9.5-3.1 16.2-1.4 6.8-2.8 14-3 16-.3 2.1-.9 6.7-1.3 10.3-.4 3.6-.8 14.8-.8 25 0 20.2.7 30.6 3 42 .3 1.4.8 3.7 1 5.2.3 1.6.7 3.8.9 5 .2 1.3.9 4.3 1.5 6.8 14.1 56.4 44.7 103.7 90.2 139.7 17.5 13.8 40.8 27 62.4 35.6 9.4 3.7 30.2 10.3 35.8 11.2 1.7.4 5 1 7.2 1.5 5.6 1.3 10.4 2.1 15 2.6 2.2.2 5.1.7 6.5 1 1.4.3 12 .7 23.5.9 18.6.3 27.3-.1 38.8-1.9 1.7-.2 5.5-.8 8.2-1.1 2.8-.4 9.7-1.8 15.5-3.2 90.6-21.4 161.8-90.3 186-179.8 1.2-4.4 2.4-9.1 2.6-10.5.3-1.4.7-3.1.9-3.9.8-2.2 3.5-20.9 4.2-29.1 1.3-14.4.6-46.9-1.2-55.5-.3-1.1-.7-3.7-1-5.9-2.4-17.2-9.5-40.7-18.8-62.6-8.8-20.7-15.4-33.5-22-42.5-5.4-7.3-13.5-16.5-14.6-16.5-.3 0-5.5 9.6-11.4 21.3z"/></svg>